<?xml version="1.0" standalone="no"?>
<!DOCTYPE svg PUBLIC "-//W3C//DTD SVG 20010904//EN"
 "http://www.w3.org/TR/2001/REC-SVG-20010904/DTD/svg10.dtd">
<svg version="1.0" xmlns="http://www.w3.org/2000/svg"
 width="418.000000pt" height="210.000000pt" viewBox="0 0 418.000000 210.000000"
 preserveAspectRatio="xMidYMid meet">

<g transform="translate(0.000000,210.000000) scale(0.100000,-0.100000)"
fill="#000000" stroke="none">
<path d="M1897 2063 c-4 -3 -7 -42 -7 -85 l0 -78 180 0 181 0 -3 83 c-3 76 -5
82 -25 85 -16 2 -23 -3 -26 -20 l-4 -23 -8 23 c-6 18 -15 22 -51 22 -39 0 -44
-3 -50 -27 -10 -48 -12 -49 -13 -10 l-1 37 -49 0 c-46 0 -50 -2 -54 -27 l-4
-28 -2 28 c-1 23 -5 27 -29 27 -16 0 -32 -3 -35 -7z"/>
<path d="M1890 1855 l0 -25 180 0 180 0 0 25 0 25 -180 0 -180 0 0 -25z"/>
<path d="M1890 1750 c0 -47 2 -51 33 -64 17 -7 43 -26 57 -40 24 -27 25 -33
30 -209 5 -173 7 -185 34 -242 l28 -60 24 51 c36 77 47 154 40 277 -6 95 -4
114 13 153 16 35 29 49 61 62 39 17 40 18 40 70 l0 52 -180 0 -180 0 0 -50z
m205 -465 c0 -23 -34 -33 -45 -14 -13 20 1 40 24 37 13 -2 21 -10 21 -23z"/>
<path d="M1600 755 l0 -265 25 0 c22 0 25 4 25 37 l0 37 28 -26 c106 -98 286
-31 300 112 9 101 -23 165 -103 201 -68 31 -148 18 -202 -33 l-23 -21 0 111 0
112 -25 0 -25 0 0 -265z m257 56 c50 -23 77 -68 77 -131 0 -65 -26 -108 -80
-132 -145 -63 -270 110 -168 232 42 49 105 61 171 31z"/>
<path d="M80 739 l0 -251 143 4 c118 3 150 7 187 24 95 44 140 117 140 225 0
58 -5 80 -26 120 -53 96 -135 129 -321 129 l-123 0 0 -251z m317 183 c112 -58
144 -208 67 -310 -45 -59 -94 -76 -219 -76 l-110 -1 -3 195 c-1 107 0 201 3
208 9 24 208 11 262 -16z"/>
<path d="M984 852 c-72 -34 -110 -106 -102 -193 12 -119 140 -197 259 -158 48
16 82 49 68 65 -8 10 -18 8 -47 -9 -76 -45 -180 -19 -217 53 -31 60 -30 60
140 60 l155 0 0 36 c0 47 -36 110 -77 135 -48 30 -128 34 -179 11z m143 -41
c38 -18 73 -61 73 -91 0 -6 -48 -10 -136 -10 l-136 0 7 28 c13 51 66 89 130
91 11 0 39 -8 62 -18z"/>
<path d="M2415 851 c-50 -22 -91 -69 -105 -119 -12 -46 -12 -58 0 -104 31
-110 160 -168 265 -119 73 34 105 85 105 171 0 86 -32 137 -105 171 -51 24
-109 24 -160 0z m143 -41 c33 -15 47 -29 62 -62 25 -54 25 -82 0 -136 -25 -55
-89 -87 -151 -77 -113 19 -156 168 -73 250 48 48 95 55 162 25z"/>
<path d="M3040 680 l0 -190 24 0 c24 0 24 0 28 129 4 153 14 176 91 201 32 10
47 20 47 33 0 9 -7 17 -15 17 -28 0 -90 -30 -107 -53 -18 -22 -18 -22 -18 16
0 33 -3 37 -25 37 l-25 0 0 -190z"/>
<path d="M3650 864 c-58 -19 -90 -39 -88 -53 4 -19 16 -18 80 5 85 30 168 -8
168 -76 l0 -30 -80 0 c-85 0 -143 -17 -166 -48 -7 -9 -14 -38 -14 -64 0 -39 4
-50 30 -72 56 -47 144 -47 200 0 l30 26 0 -31 c0 -27 4 -31 26 -31 l26 0 -4
148 c-3 168 -11 189 -79 216 -38 15 -98 20 -129 10z m160 -228 c0 -71 -82
-120 -162 -97 -62 19 -77 74 -32 110 22 17 41 21 110 21 l84 0 0 -34z"/>
<path d="M1830 230 c0 -5 5 -10 10 -10 6 0 10 5 10 10 0 6 -4 10 -10 10 -5 0
-10 -4 -10 -10z"/>
<path d="M2392 150 c0 -52 2 -89 5 -83 3 10 10 10 25 2 28 -15 67 -3 80 26 25
55 -24 111 -76 87 -24 -11 -25 -9 -29 26 -2 20 -4 -6 -5 -58z m88 10 c11 -11
20 -27 20 -35 0 -16 -34 -55 -48 -55 -4 0 -18 7 -30 16 -28 20 -28 58 0 78 29
20 34 20 58 -4z"/>
<path d="M1370 145 c0 -50 4 -85 10 -85 6 0 10 29 10 68 l0 67 31 -52 c17 -29
34 -53 39 -53 5 0 21 23 37 52 l28 52 6 -70 5 -69 2 90 c2 98 2 98 -48 8 -13
-24 -27 -43 -30 -43 -3 0 -21 27 -40 60 -19 33 -37 60 -42 60 -4 0 -8 -38 -8
-85z"/>
<path d="M2050 145 l0 -87 57 4 c66 6 93 30 93 83 0 53 -27 77 -93 83 l-57 4
0 -87z m122 45 c42 -52 8 -112 -63 -114 l-44 -1 -3 59 c-2 32 -1 65 3 74 8 22
85 9 107 -18z"/>
<path d="M1610 179 c-12 -8 -9 -9 11 -5 30 7 70 -17 54 -33 -5 -5 -26 -11 -45
-13 -27 -2 -36 -8 -38 -24 -5 -32 23 -50 58 -37 21 8 30 8 34 -1 2 -6 5 14 5
45 1 30 -4 60 -11 67 -15 15 -48 15 -68 1z m70 -74 c0 -22 -36 -38 -60 -25
-37 20 -23 40 27 40 22 0 33 -5 33 -15z"/>
<path d="M1740 125 c0 -37 4 -65 10 -65 6 0 10 22 10 50 0 40 4 51 21 60 11 7
18 14 15 17 -3 3 -12 0 -21 -7 -10 -8 -15 -9 -15 -1 0 6 -4 11 -10 11 -6 0
-10 -28 -10 -65z"/>
<path d="M1843 125 c0 -38 2 -53 4 -32 2 20 2 52 0 70 -2 17 -4 1 -4 -38z"/>
<path d="M1910 179 c-12 -8 -9 -9 11 -5 30 7 70 -17 54 -33 -5 -5 -26 -11 -45
-13 -27 -2 -36 -8 -38 -24 -5 -32 23 -50 58 -37 21 8 30 8 34 -1 2 -6 5 14 5
45 1 30 -4 60 -11 67 -15 15 -48 15 -68 1z m70 -74 c0 -22 -36 -38 -60 -25
-37 20 -23 40 27 40 22 0 33 -5 33 -15z"/>
<path d="M2252 174 c-30 -21 -30 -77 0 -98 26 -19 64 -21 74 -5 5 8 -1 10 -18
6 -25 -7 -68 15 -68 34 0 5 25 9 56 9 53 0 55 1 49 23 -14 45 -54 59 -93 31z
m59 -4 c34 -19 23 -40 -20 -40 -48 0 -59 13 -29 34 27 19 24 19 49 6z"/>
<path d="M2552 125 c1 -50 3 -57 5 -25 3 34 10 50 31 67 27 23 21 32 -8 13 -9
-6 -17 -5 -22 3 -4 7 -7 -19 -6 -58z"/>
<path d="M2653 183 c-7 -2 -13 -9 -13 -14 0 -6 8 -5 20 1 27 14 62 3 58 -18
-2 -11 -15 -18 -35 -20 -37 -4 -56 -22 -47 -46 8 -21 50 -32 68 -17 11 9 15 9
19 -1 3 -7 6 12 6 43 1 30 -4 60 -11 67 -12 12 -43 15 -65 5z m67 -78 c0 -18
-34 -37 -54 -29 -16 6 -21 26 -9 37 13 14 63 7 63 -8z"/>
</g>
</svg>
